<svg xmlns="http://www.w3.org/2000/svg" width="800" height="600" viewBox="0 0 800 600"><filter id="g"><feTurbulence type="fractalNoise" baseFrequency="0.95" numOctaves="2" stitchTiles="stitch"/><feColorMatrix values="0 0 0 0 0 0 0 0 0 0 0 0 0 0 0 0.14 0 0 0 0"/></filter><rect width="800" height="600" fill="#131518"/><circle cx="252.4" cy="243.6" r="190" fill="#7d8a99" fill-opacity="0.05"/><circle cx="170.5" cy="233.6" r="251.9" fill="#7d8a99" fill-opacity="0.05"/><rect y="442.2" width="800" height="157.8" fill="#7d8a99" fill-opacity="0.05"/><line x1="0" y1="442.2" x2="800" y2="442.2" stroke="#7d8a99" stroke-opacity="0.2" stroke-width="1.5"/><path d="M110.9 416.5V164.7A79.8 79.8 0 0 1 270.6 164.7V416.5Z" fill="#c4cedb" fill-opacity="0.08" stroke="#7d8a99" stroke-opacity="0.5" stroke-width="2.5"/><line x1="190.8" y1="89.9" x2="190.8" y2="416.5" stroke="#7d8a99" stroke-opacity="0.3" stroke-width="1.5"/><line x1="110.9" y1="164.7" x2="270.6" y2="164.7" stroke="#7d8a99" stroke-opacity="0.3" stroke-width="1.5"/><path d="M346.9 403.2V161.2A68 68 0 0 1 482.9 161.2V403.2Z" fill="#c4cedb" fill-opacity="0.08" stroke="#7d8a99" stroke-opacity="0.5" stroke-width="2.5"/><line x1="414.9" y1="98.2" x2="414.9" y2="403.2" stroke="#7d8a99" stroke-opacity="0.3" stroke-width="1.5"/><line x1="346.9" y1="161.2" x2="482.9" y2="161.2" stroke="#7d8a99" stroke-opacity="0.3" stroke-width="1.5"/><line x1="262.7" y1="0" x2="262.7" y2="99.8" stroke="#525d6a" stroke-width="2"/><path d="M245.7 114.8A17 17 0 0 1 279.7 114.8Z" fill="#7d8a99" fill-opacity="0.85"/><circle cx="262.7" cy="120.8" r="4.5" fill="#c4cedb"/><circle cx="262.7" cy="120.8" r="26" fill="#c4cedb" fill-opacity="0.08"/><ellipse cx="224.2" cy="505.8" rx="84.7" ry="25.4" fill="#7d8a99" fill-opacity="0.13" stroke="#7d8a99" stroke-opacity="0.55" stroke-width="2"/><line x1="224.2" y1="531.2" x2="224.2" y2="573.2" stroke="#525d6a" stroke-width="3.5" stroke-opacity="0.6"/><ellipse cx="224.2" cy="575.2" rx="29.6" ry="5" fill="#525d6a" fill-opacity="0.4"/><rect x="194.9" y="479.6" width="30.1" height="22.1" rx="3.9" fill="#c4cedb" fill-opacity="0.9"/><circle cx="230" cy="489.6" r="7.4" fill="none" stroke="#c4cedb" stroke-opacity="0.9" stroke-width="4.2"/><path d="M206.4 473.6q6 -9 0 -18q-6 -9 0 -18" fill="none" stroke="#c4cedb" stroke-opacity="0.4" stroke-width="2"/><path d="M90.3 523.8Q101.1 460.2 133.4 439M90.3 523.8Q106.9 417.5 156.6 382.1M90.3 523.8Q111.8 415.3 176.4 379.2M90.3 523.8Q96.5 452.6 115.3 428.8M90.3 523.8Q86 433.5 73.1 403.5M90.3 523.8Q108.1 395.1 161.6 352.2M90.3 523.8Q97.2 425.6 117.9 392.9" fill="none" stroke="#7d8a99" stroke-opacity="0.55" stroke-width="2"/><path d="M74.3 523.8h32l-5 26h-22Z" fill="#525d6a" fill-opacity="0.7"/><rect width="800" height="600" filter="url(#g)"/></svg>