<svg xmlns="http://www.w3.org/2000/svg" width="800" height="600" viewBox="0 0 800 600"><filter id="g"><feTurbulence type="fractalNoise" baseFrequency="0.69" numOctaves="2" stitchTiles="stitch"/><feColorMatrix values="0 0 0 0 0 0 0 0 0 0 0 0 0 0 0 0.14 0 0 0 0"/></filter><rect width="800" height="600" fill="#181410"/><circle cx="402.6" cy="176.4" r="209.9" fill="#d9a441" fill-opacity="0.05"/><rect y="442.6" width="800" height="157.4" fill="#d9a441" fill-opacity="0.05"/><line x1="0" y1="442.6" x2="800" y2="442.6" stroke="#d9a441" stroke-opacity="0.2" stroke-width="1.5"/><path d="M109.8 385.6V210.2A72.7 72.7 0 0 1 255.3 210.2V385.6Z" fill="#f0dda2" fill-opacity="0.07" stroke="#d9a441" stroke-opacity="0.5" stroke-width="2.5"/><line x1="182.5" y1="142.5" x2="182.5" y2="385.6" stroke="#d9a441" stroke-opacity="0.3" stroke-width="1.5"/><line x1="109.8" y1="210.2" x2="255.3" y2="210.2" stroke="#d9a441" stroke-opacity="0.3" stroke-width="1.5"/><path d="M357.9 426.8V151.2A50.9 50.9 0 0 1 459.6 151.2V426.8Z" fill="#f0dda2" fill-opacity="0.05" stroke="#d9a441" stroke-opacity="0.5" stroke-width="2.5"/><line x1="408.8" y1="105.4" x2="408.8" y2="426.8" stroke="#d9a441" stroke-opacity="0.3" stroke-width="1.5"/><line x1="357.9" y1="151.2" x2="459.6" y2="151.2" stroke="#d9a441" stroke-opacity="0.3" stroke-width="1.5"/><line x1="178.4" y1="0" x2="178.4" y2="140.5" stroke="#9a7127" stroke-width="2"/><path d="M161.4 155.5A17 17 0 0 1 195.4 155.5Z" fill="#d9a441" fill-opacity="0.85"/><circle cx="178.4" cy="161.5" r="4.5" fill="#f0dda2"/><circle cx="178.4" cy="161.5" r="26" fill="#f0dda2" fill-opacity="0.08"/><line x1="258" y1="0" x2="258" y2="122" stroke="#9a7127" stroke-width="2"/><path d="M241 137A17 17 0 0 1 275 137Z" fill="#d9a441" fill-opacity="0.85"/><circle cx="258" cy="143" r="4.5" fill="#f0dda2"/><circle cx="258" cy="143" r="26" fill="#f0dda2" fill-opacity="0.08"/><ellipse cx="560.1" cy="542.1" rx="85.7" ry="25.7" fill="#d9a441" fill-opacity="0.13" stroke="#d9a441" stroke-opacity="0.55" stroke-width="2"/><line x1="560.1" y1="567.8" x2="560.1" y2="609.8" stroke="#9a7127" stroke-width="3.5" stroke-opacity="0.6"/><ellipse cx="560.1" cy="611.8" rx="30" ry="5" fill="#9a7127" fill-opacity="0.4"/><rect x="554.7" y="521.6" width="22.4" height="16.5" rx="2.9" fill="#f0dda2" fill-opacity="0.9"/><circle cx="580.8" cy="529" r="5.5" fill="none" stroke="#f0dda2" stroke-opacity="0.9" stroke-width="3.2"/><path d="M563.2 515.6q6 -9 0 -18q-6 -9 0 -18" fill="none" stroke="#f0dda2" stroke-opacity="0.4" stroke-width="2"/><rect width="800" height="600" filter="url(#g)"/></svg>