<svg xmlns="http://www.w3.org/2000/svg" width="800" height="600" viewBox="0 0 800 600"><filter id="g"><feTurbulence type="fractalNoise" baseFrequency="0.75" numOctaves="2" stitchTiles="stitch"/><feColorMatrix values="0 0 0 0 0 0 0 0 0 0 0 0 0 0 0 0.14 0 0 0 0"/></filter><rect width="800" height="600" fill="#181410"/><circle cx="384" cy="127.4" r="151.9" fill="#d9a441" fill-opacity="0.05"/><circle cx="132.7" cy="242.6" r="183.1" fill="#d9a441" fill-opacity="0.05"/><rect y="425.6" width="800" height="174.4" fill="#d9a441" fill-opacity="0.05"/><line x1="0" y1="425.6" x2="800" y2="425.6" stroke="#d9a441" stroke-opacity="0.2" stroke-width="1.5"/><path d="M549.1 394.5V199.4A120.4 120.4 0 0 1 790 199.4V394.5Z" fill="#f0dda2" fill-opacity="0.06" stroke="#d9a441" stroke-opacity="0.5" stroke-width="2.5"/><line x1="669.6" y1="83.9" x2="669.6" y2="394.5" stroke="#d9a441" stroke-opacity="0.3" stroke-width="1.5"/><line x1="549.1" y1="199.4" x2="790" y2="199.4" stroke="#d9a441" stroke-opacity="0.3" stroke-width="1.5"/><line x1="212.2" y1="0" x2="212.2" y2="118.2" stroke="#9a7127" stroke-width="2"/><path d="M195.2 133.2A17 17 0 0 1 229.2 133.2Z" fill="#d9a441" fill-opacity="0.85"/><circle cx="212.2" cy="139.2" r="4.5" fill="#f0dda2"/><circle cx="212.2" cy="139.2" r="26" fill="#f0dda2" fill-opacity="0.08"/><ellipse cx="427.3" cy="514.1" rx="119" ry="35.7" fill="#d9a441" fill-opacity="0.13" stroke="#d9a441" stroke-opacity="0.55" stroke-width="2"/><line x1="427.3" y1="549.8" x2="427.3" y2="591.8" stroke="#9a7127" stroke-width="3.5" stroke-opacity="0.6"/><ellipse cx="427.3" cy="593.8" rx="41.6" ry="5" fill="#9a7127" fill-opacity="0.4"/><rect x="419.4" y="489.1" width="28.5" height="21" rx="3.7" fill="#f0dda2" fill-opacity="0.9"/><circle cx="452.6" cy="498.5" r="7.1" fill="none" stroke="#f0dda2" stroke-opacity="0.9" stroke-width="4"/><path d="M430.3 483.1q6 -9 0 -18q-6 -9 0 -18" fill="none" stroke="#f0dda2" stroke-opacity="0.4" stroke-width="2"/><path d="M117.7 524.2Q98 381.9 39 334.4M117.7 524.2Q108.6 436.6 81.2 407.4M117.7 524.2Q109.5 416.3 84.7 380.4M117.7 524.2Q132.4 434.7 176.5 404.8M117.7 524.2Q109.6 426.8 85.1 394.4M117.7 524.2Q136.4 417.1 192.6 381.4M117.7 524.2Q116.9 397.2 114.4 354.9" fill="none" stroke="#d9a441" stroke-opacity="0.55" stroke-width="2"/><path d="M101.7 524.2h32l-5 26h-22Z" fill="#9a7127" fill-opacity="0.7"/><rect width="800" height="600" filter="url(#g)"/></svg>