<svg xmlns="http://www.w3.org/2000/svg" width="800" height="600" viewBox="0 0 800 600"><filter id="g"><feTurbulence type="fractalNoise" baseFrequency="0.9" numOctaves="2" stitchTiles="stitch"/><feColorMatrix values="0 0 0 0 0 0 0 0 0 0 0 0 0 0 0 0.14 0 0 0 0"/></filter><rect width="800" height="600" fill="#181314"/><circle cx="628.2" cy="253.8" r="261.8" fill="#c98a7a" fill-opacity="0.05"/><circle cx="568.2" cy="244.4" r="265.2" fill="#c98a7a" fill-opacity="0.05"/><rect y="459.2" width="800" height="140.8" fill="#c98a7a" fill-opacity="0.05"/><line x1="0" y1="459.2" x2="800" y2="459.2" stroke="#c98a7a" stroke-opacity="0.2" stroke-width="1.5"/><rect y="459.2" width="800" height="118.4" fill="#8f5d51" fill-opacity="0.22"/><line x1="0" y1="459.2" x2="800" y2="459.2" stroke="#c98a7a" stroke-opacity="0.5" stroke-width="2.5"/><line x1="125.2" y1="175.7" x2="563.8" y2="175.7" stroke="#c98a7a" stroke-opacity="0.35" stroke-width="2"/><rect x="226.6" y="164.2" width="12.9" height="9.5" rx="1.7" fill="#c98a7a" fill-opacity="0.9"/><circle cx="241.6" cy="168.5" r="3.2" fill="none" stroke="#c98a7a" stroke-opacity="0.9" stroke-width="1.8"/><rect x="322.1" y="163.7" width="13.6" height="10" rx="1.8" fill="#c98a7a" fill-opacity="0.9"/><circle cx="338" cy="168.2" r="3.4" fill="none" stroke="#c98a7a" stroke-opacity="0.9" stroke-width="1.9"/><rect x="422.1" y="162.4" width="15.3" height="11.3" rx="2" fill="#c98a7a" fill-opacity="0.9"/><circle cx="439.9" cy="167.5" r="3.8" fill="none" stroke="#c98a7a" stroke-opacity="0.9" stroke-width="2.2"/><rect x="182.9" y="432.2" width="32.6" height="24" rx="4.2" fill="#eccdc2" fill-opacity="0.9"/><circle cx="220.9" cy="443" r="8.1" fill="none" stroke="#eccdc2" stroke-opacity="0.9" stroke-width="4.6"/><path d="M195.4 426.2q6 -9 0 -18q-6 -9 0 -18" fill="none" stroke="#eccdc2" stroke-opacity="0.4" stroke-width="2"/><rect x="422.4" y="431.6" width="33.4" height="24.6" rx="4.3" fill="#eccdc2" fill-opacity="0.9"/><circle cx="461.3" cy="442.7" r="8.3" fill="none" stroke="#eccdc2" stroke-opacity="0.9" stroke-width="4.7"/><path d="M435.1 425.6q6 -9 0 -18q-6 -9 0 -18" fill="none" stroke="#eccdc2" stroke-opacity="0.4" stroke-width="2"/><line x1="215.2" y1="0" x2="215.2" y2="104.9" stroke="#8f5d51" stroke-width="2"/><path d="M198.2 119.9A17 17 0 0 1 232.2 119.9Z" fill="#c98a7a" fill-opacity="0.85"/><circle cx="215.2" cy="125.9" r="4.5" fill="#eccdc2"/><circle cx="215.2" cy="125.9" r="26" fill="#eccdc2" fill-opacity="0.08"/><line x1="470.1" y1="0" x2="470.1" y2="124.3" stroke="#8f5d51" stroke-width="2"/><path d="M453.1 139.3A17 17 0 0 1 487.1 139.3Z" fill="#c98a7a" fill-opacity="0.85"/><circle cx="470.1" cy="145.3" r="4.5" fill="#eccdc2"/><circle cx="470.1" cy="145.3" r="26" fill="#eccdc2" fill-opacity="0.08"/><path d="M715.2 453.2Q693.5 390.5 628.4 369.6M715.2 453.2Q694.5 322.3 632.4 278.7M715.2 453.2Q722.2 340.8 743.2 303.3M715.2 453.2Q730.3 358.1 775.8 326.4M715.2 453.2Q696.2 334.6 639.4 295.1M715.2 453.2Q698.9 324 650.3 280.9M715.2 453.2Q726.6 372.4 761 345.4" fill="none" stroke="#c98a7a" stroke-opacity="0.55" stroke-width="2"/><path d="M699.2 453.2h32l-5 26h-22Z" fill="#8f5d51" fill-opacity="0.7"/><rect width="800" height="600" filter="url(#g)"/></svg>