<svg xmlns="http://www.w3.org/2000/svg" width="800" height="600" viewBox="0 0 800 600"><filter id="g"><feTurbulence type="fractalNoise" baseFrequency="0.72" numOctaves="2" stitchTiles="stitch"/><feColorMatrix values="0 0 0 0 0 0 0 0 0 0 0 0 0 0 0 0.14 0 0 0 0"/></filter><rect width="800" height="600" fill="#131518"/><circle cx="346.7" cy="334.9" r="213.1" fill="#7d8a99" fill-opacity="0.05"/><rect y="458.6" width="800" height="141.4" fill="#7d8a99" fill-opacity="0.05"/><line x1="0" y1="458.6" x2="800" y2="458.6" stroke="#7d8a99" stroke-opacity="0.2" stroke-width="1.5"/><path d="M526 410.3V183.8A110 110 0 0 1 746.1 183.8V410.3Z" fill="#c4cedb" fill-opacity="0.05" stroke="#7d8a99" stroke-opacity="0.5" stroke-width="2.5"/><line x1="636.1" y1="78.8" x2="636.1" y2="410.3" stroke="#7d8a99" stroke-opacity="0.3" stroke-width="1.5"/><line x1="526" y1="183.8" x2="746.1" y2="183.8" stroke="#7d8a99" stroke-opacity="0.3" stroke-width="1.5"/><line x1="132.7" y1="0" x2="132.7" y2="130.1" stroke="#525d6a" stroke-width="2"/><path d="M115.7 145.1A17 17 0 0 1 149.7 145.1Z" fill="#7d8a99" fill-opacity="0.85"/><circle cx="132.7" cy="151.1" r="4.5" fill="#c4cedb"/><circle cx="132.7" cy="151.1" r="26" fill="#c4cedb" fill-opacity="0.08"/><ellipse cx="319.2" cy="551.2" rx="108.8" ry="32.6" fill="#7d8a99" fill-opacity="0.13" stroke="#7d8a99" stroke-opacity="0.55" stroke-width="2"/><line x1="319.2" y1="583.8" x2="319.2" y2="625.8" stroke="#525d6a" stroke-width="3.5" stroke-opacity="0.6"/><ellipse cx="319.2" cy="627.8" rx="38.1" ry="5" fill="#525d6a" fill-opacity="0.4"/><rect x="285.5" y="523.5" width="32.3" height="23.7" rx="4.2" fill="#c4cedb" fill-opacity="0.9"/><circle cx="323.1" cy="534.2" r="8" fill="none" stroke="#c4cedb" stroke-opacity="0.9" stroke-width="4.6"/><path d="M297.8 517.5q6 -9 0 -18q-6 -9 0 -18" fill="none" stroke="#c4cedb" stroke-opacity="0.4" stroke-width="2"/><path d="M78.9 571.1Q76.8 452.6 70.7 413M78.9 571.1Q80.1 461.5 83.6 425M78.9 571.1Q95.9 478.9 147 448.1M78.9 571.1Q92.9 498.8 135.2 474.7M78.9 571.1Q95 455.4 143.5 416.8" fill="none" stroke="#7d8a99" stroke-opacity="0.55" stroke-width="2"/><path d="M62.9 571.1h32l-5 26h-22Z" fill="#525d6a" fill-opacity="0.7"/><rect width="800" height="600" filter="url(#g)"/></svg>