<svg xmlns="http://www.w3.org/2000/svg" width="800" height="600" viewBox="0 0 800 600"><filter id="g"><feTurbulence type="fractalNoise" baseFrequency="0.98" numOctaves="2" stitchTiles="stitch"/><feColorMatrix values="0 0 0 0 0 0 0 0 0 0 0 0 0 0 0 0.14 0 0 0 0"/></filter><rect width="800" height="600" fill="#141611"/><circle cx="619.4" cy="351.8" r="203.8" fill="#8a9a6e" fill-opacity="0.05"/><circle cx="382.9" cy="204.9" r="266.8" fill="#8a9a6e" fill-opacity="0.05"/><rect y="431.8" width="800" height="168.2" fill="#8a9a6e" fill-opacity="0.05"/><line x1="0" y1="431.8" x2="800" y2="431.8" stroke="#8a9a6e" stroke-opacity="0.2" stroke-width="1.5"/><rect y="431.8" width="800" height="117.7" fill="#5d6b48" fill-opacity="0.22"/><line x1="0" y1="431.8" x2="800" y2="431.8" stroke="#8a9a6e" stroke-opacity="0.5" stroke-width="2.5"/><line x1="132.2" y1="130.3" x2="561.3" y2="130.3" stroke="#8a9a6e" stroke-opacity="0.35" stroke-width="2"/><rect x="231.2" y="118.6" width="13.1" height="9.7" rx="1.7" fill="#8a9a6e" fill-opacity="0.9"/><circle cx="246.5" cy="123" r="3.2" fill="none" stroke="#8a9a6e" stroke-opacity="0.9" stroke-width="1.9"/><rect x="310.5" y="118.9" width="12.7" height="9.4" rx="1.6" fill="#8a9a6e" fill-opacity="0.9"/><circle cx="325.4" cy="123.1" r="3.1" fill="none" stroke="#8a9a6e" stroke-opacity="0.9" stroke-width="1.8"/><rect x="154.7" y="410.2" width="25.3" height="18.6" rx="3.3" fill="#ccd6b6" fill-opacity="0.9"/><circle cx="184.2" cy="418.6" r="6.3" fill="none" stroke="#ccd6b6" stroke-opacity="0.9" stroke-width="3.6"/><path d="M164.4 404.2q6 -9 0 -18q-6 -9 0 -18" fill="none" stroke="#ccd6b6" stroke-opacity="0.4" stroke-width="2"/><rect x="368.8" y="404.5" width="33" height="24.3" rx="4.3" fill="#ccd6b6" fill-opacity="0.9"/><circle cx="407.3" cy="415.4" r="8.2" fill="none" stroke="#ccd6b6" stroke-opacity="0.9" stroke-width="4.7"/><path d="M381.4 398.5q6 -9 0 -18q-6 -9 0 -18" fill="none" stroke="#ccd6b6" stroke-opacity="0.4" stroke-width="2"/><line x1="211.7" y1="0" x2="211.7" y2="82.4" stroke="#5d6b48" stroke-width="2"/><path d="M194.7 97.4A17 17 0 0 1 228.7 97.4Z" fill="#8a9a6e" fill-opacity="0.85"/><circle cx="211.7" cy="103.4" r="4.5" fill="#ccd6b6"/><circle cx="211.7" cy="103.4" r="26" fill="#ccd6b6" fill-opacity="0.08"/><line x1="454.6" y1="0" x2="454.6" y2="65.7" stroke="#5d6b48" stroke-width="2"/><path d="M437.6 80.7A17 17 0 0 1 471.6 80.7Z" fill="#8a9a6e" fill-opacity="0.85"/><circle cx="454.6" cy="86.7" r="4.5" fill="#ccd6b6"/><circle cx="454.6" cy="86.7" r="26" fill="#ccd6b6" fill-opacity="0.08"/><rect width="800" height="600" filter="url(#g)"/></svg>