<svg xmlns="http://www.w3.org/2000/svg" width="800" height="600" viewBox="0 0 800 600"><filter id="g"><feTurbulence type="fractalNoise" baseFrequency="0.66" numOctaves="2" stitchTiles="stitch"/><feColorMatrix values="0 0 0 0 0 0 0 0 0 0 0 0 0 0 0 0.14 0 0 0 0"/></filter><rect width="800" height="600" fill="#181314"/><circle cx="249.6" cy="358.5" r="268.8" fill="#c98a7a" fill-opacity="0.05"/><rect y="432.1" width="800" height="167.9" fill="#c98a7a" fill-opacity="0.05"/><line x1="0" y1="432.1" x2="800" y2="432.1" stroke="#c98a7a" stroke-opacity="0.2" stroke-width="1.5"/><path d="M107.7 410.2V178.4A78.4 78.4 0 0 1 264.6 178.4V410.2Z" fill="#eccdc2" fill-opacity="0.04" stroke="#c98a7a" stroke-opacity="0.5" stroke-width="2.5"/><line x1="186.2" y1="104.9" x2="186.2" y2="410.2" stroke="#c98a7a" stroke-opacity="0.3" stroke-width="1.5"/><line x1="107.7" y1="178.4" x2="264.6" y2="178.4" stroke="#c98a7a" stroke-opacity="0.3" stroke-width="1.5"/><path d="M383.8 397.6V154A57.5 57.5 0 0 1 498.7 154V397.6Z" fill="#eccdc2" fill-opacity="0.07" stroke="#c98a7a" stroke-opacity="0.5" stroke-width="2.5"/><line x1="441.2" y1="101.5" x2="441.2" y2="397.6" stroke="#c98a7a" stroke-opacity="0.3" stroke-width="1.5"/><line x1="383.8" y1="154" x2="498.7" y2="154" stroke="#c98a7a" stroke-opacity="0.3" stroke-width="1.5"/><line x1="625.2" y1="0" x2="625.2" y2="86.5" stroke="#8f5d51" stroke-width="2"/><path d="M608.2 101.5A17 17 0 0 1 642.2 101.5Z" fill="#c98a7a" fill-opacity="0.85"/><circle cx="625.2" cy="107.5" r="4.5" fill="#eccdc2"/><circle cx="625.2" cy="107.5" r="26" fill="#eccdc2" fill-opacity="0.08"/><line x1="206.5" y1="0" x2="206.5" y2="68.1" stroke="#8f5d51" stroke-width="2"/><path d="M189.5 83.1A17 17 0 0 1 223.5 83.1Z" fill="#c98a7a" fill-opacity="0.85"/><circle cx="206.5" cy="89.1" r="4.5" fill="#eccdc2"/><circle cx="206.5" cy="89.1" r="26" fill="#eccdc2" fill-opacity="0.08"/><ellipse cx="601.6" cy="477.1" rx="73.8" ry="22.1" fill="#c98a7a" fill-opacity="0.13" stroke="#c98a7a" stroke-opacity="0.55" stroke-width="2"/><line x1="601.6" y1="499.2" x2="601.6" y2="541.2" stroke="#8f5d51" stroke-width="3.5" stroke-opacity="0.6"/><ellipse cx="601.6" cy="543.2" rx="25.8" ry="5" fill="#8f5d51" fill-opacity="0.4"/><rect x="603" y="451.9" width="28.8" height="21.2" rx="3.7" fill="#eccdc2" fill-opacity="0.9"/><circle cx="636.5" cy="461.4" r="7.1" fill="none" stroke="#eccdc2" stroke-opacity="0.9" stroke-width="4.1"/><path d="M614 445.9q6 -9 0 -18q-6 -9 0 -18" fill="none" stroke="#eccdc2" stroke-opacity="0.4" stroke-width="2"/><path d="M100.6 507.2Q101.2 374.1 103 329.8M100.6 507.2Q78.7 433.6 13 409.1M100.6 507.2Q102.1 401.5 106.6 366.3M100.6 507.2Q94.1 394.6 74.8 357.1M100.6 507.2Q115.4 406.9 160.1 373.5" fill="none" stroke="#c98a7a" stroke-opacity="0.55" stroke-width="2"/><path d="M84.6 507.2h32l-5 26h-22Z" fill="#8f5d51" fill-opacity="0.7"/><rect width="800" height="600" filter="url(#g)"/></svg>