<svg xmlns="http://www.w3.org/2000/svg" width="800" height="600" viewBox="0 0 800 600"><filter id="g"><feTurbulence type="fractalNoise" baseFrequency="0.89" numOctaves="2" stitchTiles="stitch"/><feColorMatrix values="0 0 0 0 0 0 0 0 0 0 0 0 0 0 0 0.14 0 0 0 0"/></filter><rect width="800" height="600" fill="#181410"/><circle cx="325.5" cy="358.7" r="247" fill="#d9a441" fill-opacity="0.05"/><rect y="424.5" width="800" height="175.5" fill="#d9a441" fill-opacity="0.05"/><line x1="0" y1="424.5" x2="800" y2="424.5" stroke="#d9a441" stroke-opacity="0.2" stroke-width="1.5"/><path d="M548.9 401.3V208.1A110.6 110.6 0 0 1 770.1 208.1V401.3Z" fill="#f0dda2" fill-opacity="0.07" stroke="#d9a441" stroke-opacity="0.5" stroke-width="2.5"/><line x1="659.5" y1="102.5" x2="659.5" y2="401.3" stroke="#d9a441" stroke-opacity="0.3" stroke-width="1.5"/><line x1="548.9" y1="208.1" x2="770.1" y2="208.1" stroke="#d9a441" stroke-opacity="0.3" stroke-width="1.5"/><line x1="163.7" y1="0" x2="163.7" y2="129.9" stroke="#9a7127" stroke-width="2"/><path d="M146.7 144.9A17 17 0 0 1 180.7 144.9Z" fill="#d9a441" fill-opacity="0.85"/><circle cx="163.7" cy="150.9" r="4.5" fill="#f0dda2"/><circle cx="163.7" cy="150.9" r="26" fill="#f0dda2" fill-opacity="0.08"/><ellipse cx="400.1" cy="479" rx="113.8" ry="34.2" fill="#d9a441" fill-opacity="0.13" stroke="#d9a441" stroke-opacity="0.55" stroke-width="2"/><line x1="400.1" y1="513.2" x2="400.1" y2="555.2" stroke="#9a7127" stroke-width="3.5" stroke-opacity="0.6"/><ellipse cx="400.1" cy="557.2" rx="39.8" ry="5" fill="#9a7127" fill-opacity="0.4"/><rect x="383.9" y="455.5" width="26.5" height="19.5" rx="3.4" fill="#f0dda2" fill-opacity="0.9"/><circle cx="414.7" cy="464.3" r="6.5" fill="none" stroke="#f0dda2" stroke-opacity="0.9" stroke-width="3.7"/><path d="M394 449.5q6 -9 0 -18q-6 -9 0 -18" fill="none" stroke="#f0dda2" stroke-opacity="0.4" stroke-width="2"/><path d="M91 538.1Q112.3 396.2 176.1 348.9M91 538.1Q69.1 398.3 3.1 351.7M91 538.1Q102.6 404.5 137.1 359.9M91 538.1Q97.7 412.6 117.5 370.8M91 538.1Q93.3 446.1 100.1 415.4M91 538.1Q103.4 395.6 140.5 348.1" fill="none" stroke="#d9a441" stroke-opacity="0.55" stroke-width="2"/><path d="M75 538.1h32l-5 26h-22Z" fill="#9a7127" fill-opacity="0.7"/><rect width="800" height="600" filter="url(#g)"/></svg>