<svg xmlns="http://www.w3.org/2000/svg" width="800" height="600" viewBox="0 0 800 600"><filter id="g"><feTurbulence type="fractalNoise" baseFrequency="0.65" numOctaves="2" stitchTiles="stitch"/><feColorMatrix values="0 0 0 0 0 0 0 0 0 0 0 0 0 0 0 0.14 0 0 0 0"/></filter><rect width="800" height="600" fill="#171311"/><circle cx="593.6" cy="113.4" r="232.6" fill="#b07a5c" fill-opacity="0.05"/><rect y="453.6" width="800" height="146.4" fill="#b07a5c" fill-opacity="0.05"/><line x1="0" y1="453.6" x2="800" y2="453.6" stroke="#b07a5c" stroke-opacity="0.2" stroke-width="1.5"/><rect y="453.6" width="800" height="107.3" fill="#7a4f39" fill-opacity="0.22"/><line x1="0" y1="453.6" x2="800" y2="453.6" stroke="#b07a5c" stroke-opacity="0.5" stroke-width="2.5"/><line x1="103.3" y1="177.2" x2="560.6" y2="177.2" stroke="#b07a5c" stroke-opacity="0.35" stroke-width="2"/><rect x="175.4" y="164.6" width="14.5" height="10.6" rx="1.9" fill="#b07a5c" fill-opacity="0.9"/><circle cx="192.3" cy="169.3" r="3.6" fill="none" stroke="#b07a5c" stroke-opacity="0.9" stroke-width="2"/><rect x="267.4" y="163.7" width="15.6" height="11.5" rx="2" fill="#b07a5c" fill-opacity="0.9"/><circle cx="285.6" cy="168.9" r="3.9" fill="none" stroke="#b07a5c" stroke-opacity="0.9" stroke-width="2.2"/><rect x="377.9" y="165.9" width="12.7" height="9.3" rx="1.6" fill="#b07a5c" fill-opacity="0.9"/><circle cx="392.7" cy="170.1" r="3.1" fill="none" stroke="#b07a5c" stroke-opacity="0.9" stroke-width="1.8"/><rect x="145.7" y="427.1" width="32" height="23.5" rx="4.1" fill="#e2bda6" fill-opacity="0.9"/><circle cx="182.9" cy="437.7" r="7.9" fill="none" stroke="#e2bda6" stroke-opacity="0.9" stroke-width="4.5"/><path d="M157.9 421.1q6 -9 0 -18q-6 -9 0 -18" fill="none" stroke="#e2bda6" stroke-opacity="0.4" stroke-width="2"/><rect x="344.4" y="430.4" width="27.5" height="20.2" rx="3.6" fill="#e2bda6" fill-opacity="0.9"/><circle cx="376.5" cy="439.5" r="6.8" fill="none" stroke="#e2bda6" stroke-opacity="0.9" stroke-width="3.9"/><path d="M354.9 424.4q6 -9 0 -18q-6 -9 0 -18" fill="none" stroke="#e2bda6" stroke-opacity="0.4" stroke-width="2"/><line x1="198.1" y1="0" x2="198.1" y2="60.7" stroke="#7a4f39" stroke-width="2"/><path d="M181.1 75.7A17 17 0 0 1 215.1 75.7Z" fill="#b07a5c" fill-opacity="0.85"/><circle cx="198.1" cy="81.7" r="4.5" fill="#e2bda6"/><circle cx="198.1" cy="81.7" r="26" fill="#e2bda6" fill-opacity="0.08"/><line x1="439.3" y1="0" x2="439.3" y2="123.5" stroke="#7a4f39" stroke-width="2"/><path d="M422.3 138.5A17 17 0 0 1 456.3 138.5Z" fill="#b07a5c" fill-opacity="0.85"/><circle cx="439.3" cy="144.5" r="4.5" fill="#e2bda6"/><circle cx="439.3" cy="144.5" r="26" fill="#e2bda6" fill-opacity="0.08"/><rect width="800" height="600" filter="url(#g)"/></svg>