<svg xmlns="http://www.w3.org/2000/svg" width="800" height="600" viewBox="0 0 800 600"><filter id="g"><feTurbulence type="fractalNoise" baseFrequency="0.88" numOctaves="2" stitchTiles="stitch"/><feColorMatrix values="0 0 0 0 0 0 0 0 0 0 0 0 0 0 0 0.14 0 0 0 0"/></filter><rect width="800" height="600" fill="#141611"/><circle cx="193.1" cy="315.3" r="187.1" fill="#8a9a6e" fill-opacity="0.05"/><rect y="424.8" width="800" height="175.2" fill="#8a9a6e" fill-opacity="0.05"/><line x1="0" y1="424.8" x2="800" y2="424.8" stroke="#8a9a6e" stroke-opacity="0.2" stroke-width="1.5"/><path d="M99.8 400.1V175.2A114.3 114.3 0 0 1 328.5 175.2V400.1Z" fill="#ccd6b6" fill-opacity="0.06" stroke="#8a9a6e" stroke-opacity="0.5" stroke-width="2.5"/><line x1="214.1" y1="65.9" x2="214.1" y2="400.1" stroke="#8a9a6e" stroke-opacity="0.3" stroke-width="1.5"/><line x1="99.8" y1="175.2" x2="328.5" y2="175.2" stroke="#8a9a6e" stroke-opacity="0.3" stroke-width="1.5"/><line x1="598.2" y1="0" x2="598.2" y2="75.7" stroke="#5d6b48" stroke-width="2"/><path d="M581.2 90.7A17 17 0 0 1 615.2 90.7Z" fill="#8a9a6e" fill-opacity="0.85"/><circle cx="598.2" cy="96.7" r="4.5" fill="#ccd6b6"/><circle cx="598.2" cy="96.7" r="26" fill="#ccd6b6" fill-opacity="0.08"/><ellipse cx="492.7" cy="496.8" rx="98.1" ry="29.4" fill="#8a9a6e" fill-opacity="0.13" stroke="#8a9a6e" stroke-opacity="0.55" stroke-width="2"/><line x1="492.7" y1="526.2" x2="492.7" y2="568.2" stroke="#5d6b48" stroke-width="3.5" stroke-opacity="0.6"/><ellipse cx="492.7" cy="570.2" rx="34.3" ry="5" fill="#5d6b48" fill-opacity="0.4"/><rect x="490.4" y="473.1" width="26.8" height="19.7" rx="3.5" fill="#ccd6b6" fill-opacity="0.9"/><circle cx="521.6" cy="482" r="6.6" fill="none" stroke="#ccd6b6" stroke-opacity="0.9" stroke-width="3.8"/><path d="M500.6 467.1q6 -9 0 -18q-6 -9 0 -18" fill="none" stroke="#ccd6b6" stroke-opacity="0.4" stroke-width="2"/><path d="M726.5 541.8Q742.8 402.8 791.7 356.5M726.5 541.8Q716.8 429.1 687.7 391.5M726.5 541.8Q730.5 402.4 742.4 355.9M726.5 541.8Q716.4 414.4 686.4 371.9M726.5 541.8Q738.9 471.2 776.2 447.7" fill="none" stroke="#8a9a6e" stroke-opacity="0.55" stroke-width="2"/><path d="M710.5 541.8h32l-5 26h-22Z" fill="#5d6b48" fill-opacity="0.7"/><rect width="800" height="600" filter="url(#g)"/></svg>